<svg width="165" height="130" viewBox="0 0 165 130" fill="none" xmlns="http://www.w3.org/2000/svg">
<path d="M20.3185 96.6111C21.9389 96.969 22.1597 98.2551 20.8717 99.3545C19.1512 99.1375 19.1369 97.4926 20.3185 96.6111Z" fill="#9339E6"/>
<path d="M15.4685 99.8918C17.0798 99.7655 17.4374 101.163 16.1808 102.116C14.2936 102.267 13.7651 100.616 15.4685 99.8918Z" fill="#9339E6"/>
<path d="M20.3185 30.125C21.9182 29.845 22.9527 31.3351 21.5948 32.3834C20.0324 32.5872 18.754 31.1252 20.3185 30.125Z" fill="#9339E6"/>
<path d="M10.3291 24.0466C11.9762 24.073 12.7878 25.6567 11.2961 26.5729C9.69372 26.7037 8.86659 24.878 10.3291 24.0466Z" fill="#9339E6"/>
<path d="M15.4685 26.9103C17.1091 27.1258 17.8555 28.7818 16.1808 29.5045C14.5448 29.18 13.7902 27.7161 15.4685 26.9103Z" fill="#9339E6"/>
<path d="M10.6118 102.688C12.4471 102.612 12.8252 104.378 11.296 105.145C9.48628 105.312 9.13872 103.469 10.6118 102.688Z" fill="#9339E6"/>
<path d="M130.983 93.2938C132.958 92.6796 135.094 90.632 137.094 90.5404C136.941 92.2714 137.106 94.0948 137.094 95.8376C135.283 96.9727 132.882 98.4684 130.983 99.3545C130.835 97.5887 131.26 94.8335 130.983 93.2938Z" fill="#FA339E"/>
<path d="M124.738 95.0376C124.859 94.2175 124.862 90.1468 125.029 89.9235C126.46 91.0521 129.248 92.8316 130.983 93.2939C131.26 94.8335 130.835 97.5887 130.983 99.3545C130.373 99.3966 127.065 97.0157 126.026 96.6111C125.412 96.3329 125.104 96.1205 124.738 95.5475V95.0376Z" fill="#D92597"/>
<path d="M130.331 86.5687C130.844 86.4186 131.416 86.4845 131.937 86.5687C132.514 88.2658 136.986 88.642 137.094 90.5404C135.094 90.632 132.958 92.6796 130.983 93.2939C129.248 92.8316 126.46 91.0521 125.029 89.9235H125.393C126.571 88.5926 129.829 87.2946 130.331 86.5687Z" fill="#F54771"/>
<path d="M83.8105 118.994C84.9611 117.614 87.514 116.639 89.072 115.754L114.998 101.052C118.24 99.1989 121.45 97.3233 124.738 95.5475C125.104 96.1205 125.412 96.3329 126.026 96.6111C124.304 97.6894 122.516 98.6634 120.752 99.6684L94.5101 114.58C91.4199 116.338 87.9406 118.099 84.9922 119.998C84.5052 119.762 84.2224 119.325 83.8105 118.994Z" fill="#FD17D3"/>
<path d="M156.911 55.2717C159.431 55.2468 163.486 54.7644 163.528 58.3702C163.541 59.4118 162.867 60.1965 162.175 60.8937C164.319 61.983 165.017 64.5762 163.403 66.5149C161.769 67.8926 156.317 68.2734 155.915 67.2793C155.665 66.6596 155.727 56.1182 155.994 55.4568C156.257 55.2927 156.607 55.2992 156.911 55.2717ZM158.34 61.8521C156.627 61.8448 157.404 64.5176 157.414 66.266C158.792 66.2239 160.348 66.331 161.66 65.8852C162.759 65.1804 163.116 63.9327 162.33 62.8077C161.448 61.5436 159.676 61.7834 158.34 61.8521ZM159.174 56.7293H157.414V60.4086C158.343 60.4333 159.264 60.4379 160.193 60.4086C162.06 59.9767 162.586 57.8946 160.9 56.7293C160.323 56.7104 159.753 56.694 159.174 56.7293Z" fill="#FD17D3"/>
<path d="M2.97484 55.2717C7.94215 54.7197 10.1029 58.432 6.43857 61.107C9.26072 62.1459 9.36608 65.5694 6.99438 67.0971C5.48916 67.7965 1.62468 68.0683 0.324778 67.326C-0.139951 66.4426 0.0154782 58.657 0.0652739 57.168C0.139418 54.9537 0.974777 55.0926 2.97484 55.2717ZM1.63045 61.8521V66.266C3.14263 66.2788 5.00576 66.449 6.43857 65.8852C9.31702 61.9738 4.0374 61.8493 1.63045 61.8521ZM1.63045 56.7293V60.4086C2.97905 60.4964 4.73618 60.7289 5.92341 59.9426C8.54638 56.5966 3.96032 56.3269 1.63045 56.7293Z" fill="#9339E6"/>
<path d="M79.2292 116.421C80.7907 116.928 82.7578 118.724 83.8105 118.994C84.2224 119.325 84.5052 119.762 84.9922 119.998C85.1039 121.92 85.0535 123.966 84.9922 125.892C83.2017 126.915 81.0094 128.374 79.2292 129.244C77.5466 128.283 75.0204 126.976 73.4787 125.892C73.464 125.041 73.3254 120.408 73.4787 119.998L73.5992 120.018C74.1575 119.659 74.6631 119.155 75.1477 118.703C76.5086 117.956 77.797 117.031 79.2292 116.421Z" fill="#9339E6"/>
<path d="M79.2293 0C81.4369 0.784648 83.3189 2.29417 85.3574 3.41567C85.3556 4.81197 85.1945 7.62606 85.3574 8.85713C85.1689 9.46677 84.951 9.78641 84.4421 10.1741C83.8809 10.3597 83.4242 10.6931 82.8887 10.905C81.9422 11.5352 80.9609 12.109 80.0024 12.7205C79.1216 13.1283 78.4461 12.3836 77.7543 11.8988C76.714 11.3468 75.6969 10.7786 74.6863 10.1741L73.8564 10.5553L73.8123 10.4418C74.4061 9.71913 74.3831 10.1384 73.2095 9.51281L73.2032 9.19664C73.393 8.47643 73.205 4.54843 73.2032 3.41567C73.5287 3.18537 73.8665 2.97502 74.2031 2.76156C75.604 1.74532 77.6205 0.624551 79.2293 0Z" fill="#3CA8DD"/>
<path d="M73.2032 3.41568C73.5287 3.18538 73.8665 2.97503 74.2031 2.76157L74.3134 2.9007L74.0947 3.04752C74.247 3.22062 76.3576 7.07384 76.3353 7.34002C74.7102 6.74129 74.2206 3.8989 73.7799 3.45742C72.0173 3.8438 75.4702 7.8735 75.9623 8.23909C78.2872 9.96629 78.2223 9.65104 80.0822 12.3831C80.7458 12.2893 82.3788 10.6177 82.8887 10.905C81.9422 11.5352 80.9609 12.109 80.0024 12.7205C79.1216 13.1283 78.4461 12.3836 77.7543 11.8988C76.714 11.3468 75.6969 10.7786 74.6863 10.1741L73.8564 10.5553L73.8123 10.4418C74.4061 9.71914 74.3831 10.1384 73.2095 9.51282L73.2032 9.19665C73.393 8.47644 73.205 4.54844 73.2032 3.41568Z" fill="url(#paint0_linear_1_3)"/>
<path d="M28.2292 86.9742C28.8751 86.6264 29.2296 86.5843 29.8989 86.9742C31.1214 87.4603 33.1597 88.6411 34.268 89.3981C34.4752 89.5894 34.679 89.7606 34.9098 89.9235C35.4735 90.5148 35.2225 92.4453 35.208 93.2939V95.8377C35.1273 96.4491 35.0067 96.9215 34.4651 97.2766C32.735 98.0968 31.0806 99.0488 29.3634 99.8918C28.6208 100.045 24.5404 97.0212 22.6048 96.6111C23.525 94.3163 22.951 90.4682 23.2246 89.9235C24.2416 89.5336 27.6464 87.7212 28.2292 86.9742Z" fill="#F54771"/>
<path d="M28.2292 86.9742C28.8751 86.6264 29.2296 86.5843 29.8988 86.9742C31.1214 87.4603 33.1596 88.6411 34.268 89.3981C34.4752 89.5894 34.679 89.7606 34.9098 89.9235C34.4589 90.5533 30.2803 92.9149 29.3634 93.2939C27.6457 91.9501 25.2408 90.7821 23.2246 89.9235C24.2416 89.5336 27.6464 87.7212 28.2292 86.9742Z" fill="url(#paint1_linear_1_3)"/>
<path d="M34.9098 89.9235C35.4735 90.5148 35.2225 92.4453 35.208 93.2938V95.8376C35.1273 96.4491 35.0067 96.9214 34.4651 97.2766C32.735 98.0968 31.0806 99.0487 29.3634 99.8918C29.204 98.7421 29.265 94.4747 29.3634 93.2938C30.2803 92.9149 34.4589 90.5533 34.9098 89.9235Z" fill="#FA339E"/>
<path d="M126.026 32.0311C127.448 30.9636 129.631 29.658 131.308 29.0917C133.081 30.0433 135.509 31.4336 137.094 32.6331C137.362 34.005 137.091 37.6535 137.094 39.2799C135.605 40.5642 133.57 41.2477 131.937 42.3444L131.942 81.8674C131.944 83.4116 132.056 85.0364 131.937 86.5687C131.416 86.4845 130.844 86.4186 130.331 86.5687C130.19 85.1041 130.324 83.5132 130.325 82.034L130.331 42.0332C128.83 41.3559 125.892 39.9383 124.738 38.8291C124.734 37.877 124.94 33.8634 124.595 33.2932L124.782 33.2373C125.242 32.7769 125.691 32.4435 125.393 31.794L126.026 32.0311Z" fill="#FA339E"/>
<path d="M126.026 32.0311C127.449 30.9636 129.631 29.658 131.308 29.0917C133.081 30.0433 135.509 31.4336 137.094 32.6331C136.012 32.875 132.64 35.3277 131.308 35.9545C130.237 35.4385 125.629 33.2967 126.026 32.0311Z" fill="url(#paint2_linear_1_3)"/>
<path d="M28.912 29.5045C30.3032 30.1528 31.6161 30.9873 32.9191 31.794C33.3621 31.5261 33.7985 31.2612 34.268 31.0414C33.5644 31.7662 33.9137 32.4141 34.9098 32.6331C34.7571 34.817 34.9074 37.0854 34.9098 39.2799C33.4843 40.5809 31.5605 41.3785 29.8988 42.3444V86.9742C29.2296 86.5843 28.8751 86.6264 28.2292 86.9742C28.1035 85.6506 28.2203 84.2418 28.2236 82.9091L28.228 52.9484C28.2274 49.4183 28.3108 45.8723 28.2292 42.3444C26.9832 41.8283 23.8432 40.1095 22.8566 39.2799C22.8616 37.0649 22.8129 34.8476 22.8566 32.6331C25.0587 31.8967 26.8332 30.4812 28.912 29.5045Z" fill="#9339E6"/>
<path d="M35.208 95.8376C44.1053 100.802 52.9018 105.954 61.7272 111.045L75.1476 118.703C74.663 119.155 74.1575 119.659 73.5992 120.018L73.4787 119.998C72.9589 118.959 65.4489 115.207 63.9875 114.365L37.4565 99.1375C36.4634 98.5691 35.3367 98.0199 34.4651 97.2766C35.0066 96.9214 35.1273 96.4491 35.208 95.8376Z" fill="#9339E6"/>
<path d="M72.3578 87.4035C76.1702 87.4081 80.0023 87.3312 83.8105 87.4035C84.5272 89.2187 85.6174 91.075 86.671 92.7227C86.6792 92.9167 86.6893 93.1007 86.671 93.2938H67.9254C68.6649 93.0824 68.7806 93.1181 69.0058 92.3437L69.2232 92.4911C70.2269 91.281 71.0888 89.053 72.3578 87.4035Z" fill="#6A1E8B"/>
<path d="M73.2032 9.19662L73.2095 9.51279C74.3831 10.1383 74.4061 9.71911 73.8123 10.4418L73.8564 10.5553C72.7358 11.2534 71.5515 11.8563 70.4072 12.5158L39.5686 30.0196C38.1659 30.8161 36.3356 32.0365 34.9098 32.6331C33.9137 32.414 33.5644 31.7662 34.268 31.0414C36.7496 29.6894 39.1885 28.2556 41.6545 26.8751L68.9339 11.4332C69.957 10.8594 72.1445 9.41238 73.2032 9.19662Z" fill="#9339E6"/>
<path d="M74.6863 16.9448C74.8087 17.3174 74.3776 17.9686 74.2031 18.3384C75.3685 20.8747 75.6995 23.5934 76.6358 26.2019L76.9194 26.1782C76.6408 26.693 76.1603 27.8623 75.7284 28.189C72.9887 33.3747 68.4011 40.146 66.2615 45.3073L66.142 45.5888C64.3077 48.411 63.0044 51.5558 61.1505 54.3446C59.6025 55.9933 53.1184 59.2063 50.776 60.8937C51.732 62.0974 53.744 65.0797 54.0648 66.515C55.1531 67.7123 56.1122 69.7682 56.95 71.208L63.799 83.1928C64.2974 84.0615 65.9681 86.4598 66.142 87.2241C66.8725 88.0873 68.7008 91.3387 69.0059 92.3437C68.7806 93.1181 68.6649 93.0824 67.9254 93.2939H35.2081C35.2225 92.4453 35.4735 90.5148 34.9098 89.9235C34.679 89.7606 34.4752 89.5894 34.268 89.3981C35.4413 85.7266 41.4272 76.2242 43.4859 72.5765L57.1108 48.4074C58.758 45.5009 60.3013 42.5364 61.9965 39.656C63.1925 37.3737 64.4979 35.1376 65.7448 32.8818L73.2032 19.4212C73.6868 18.5896 74.1903 17.769 74.6863 16.9448ZM54.0648 66.515L46.9476 79.1167C45.4288 81.7759 43.7821 84.4725 42.4428 87.2241H66.142C65.9681 86.4598 64.2974 84.0615 63.799 83.1928L56.95 71.208C56.1122 69.7682 55.1531 67.7123 54.0648 66.515Z" fill="url(#paint3_linear_1_3)"/>
<path d="M74.6863 16.9448C74.8087 17.3174 74.3776 17.9686 74.2031 18.3384C75.3685 20.8747 75.6994 23.5934 76.6358 26.2019L76.9194 26.1782C76.6408 26.693 76.1603 27.8623 75.7284 28.189C75.7296 27.8304 75.9262 27.5001 75.9827 27.1411C76.1277 26.2195 74.386 19.8526 73.8264 19.114C73.5661 19.1382 73.4152 19.2786 73.2032 19.4212C73.6867 18.5896 74.1903 17.769 74.6863 16.9448Z" fill="#F270CF"/>
<path d="M85.3574 8.85712C87.0682 9.54693 88.6802 10.6247 90.2866 11.5367L122.809 30.3134C123.662 30.8018 124.58 31.2483 125.393 31.794C125.691 32.4435 125.242 32.7769 124.782 33.2373L124.595 33.2932C123.942 33.2014 112.497 26.3845 111.02 25.5267L90.5136 13.6299C88.5053 12.4625 86.4174 11.3898 84.442 10.174C84.951 9.78639 85.1688 9.46675 85.3574 8.85712Z" fill="#FD17D3"/>
<path d="M77.7543 11.8988C78.4461 12.3835 79.1216 13.1283 80.0024 12.7205C80.7202 13.135 93.6424 36.0309 94.9321 38.4549C96.9624 42.338 99.3158 46.0886 101.499 49.8904L112.886 69.4175C114.233 71.7114 115.645 73.9687 117.026 76.2425L122.591 85.473C123.478 86.9339 124.322 88.5935 125.393 89.9235H125.029C124.862 90.1468 124.859 94.2174 124.738 95.0376C124.686 94.4728 124.741 93.8641 124.738 93.2938L90.8633 93.2975C89.4747 93.3012 88.0559 93.3799 86.671 93.2938C86.6893 93.1007 86.6792 92.9167 86.671 92.7226C87.9049 90.9642 88.8303 88.9898 90.0651 87.2241C92.7956 82.0898 96.2649 76.5153 99.3359 71.5577C100.606 69.5072 101.74 67.3845 103.086 65.3799L105.741 61.107C103.049 59.5076 99.8989 57.9926 97.4283 56.0739C96.0406 53.2273 94.1806 50.6099 92.7545 47.7801C91.6057 46.2866 90.8414 44.3618 89.8647 42.7409C86.022 36.3635 82.5326 29.7805 78.6572 23.4312C77.9765 24.2882 77.5535 25.2941 76.9194 26.1781L76.6358 26.2019C75.6994 23.5933 75.3685 20.8747 74.2031 18.3383C74.3776 17.9685 74.8087 17.3173 74.6863 16.9448C75.0398 15.6494 76.8262 12.9038 77.7543 11.8988ZM103.086 65.3799C101.74 67.3845 100.606 69.5072 99.3359 71.5577C96.2649 76.5153 92.7956 82.0898 90.0651 87.2241C90.2876 87.3266 113.822 87.236 116.076 87.2241C114.03 83.6404 111.862 80.1254 109.734 76.5903L103.086 65.3799Z" fill="#F270CF"/>
<path d="M77.7543 11.8988C78.4461 12.3835 79.1216 13.1283 80.0024 12.7205C80.7202 13.135 93.6424 36.0309 94.9321 38.4549C92.2968 36.4522 90.2317 28.3715 88.9191 29.3286C88.5978 29.2293 88.1996 29.0522 87.8628 29.073L87.752 29.3104C85.048 28.1885 82.0786 28.4469 80.409 25.7455L80.2991 25.7499C80.8163 27.1137 81.8644 28.5807 82.6031 29.8667C83.5944 31.5916 92.8634 47.0173 92.7545 47.7801C91.6057 46.2866 90.8414 44.3618 89.8647 42.7409C86.022 36.3635 82.5326 29.7805 78.6572 23.4312C77.9765 24.2882 77.5535 25.2941 76.9194 26.1781L76.6358 26.2019C75.6994 23.5933 75.3685 20.8747 74.2031 18.3383C74.3776 17.9685 74.8087 17.3173 74.6863 16.9448C75.0398 15.6494 76.8262 12.9038 77.7543 11.8988Z" fill="url(#paint4_linear_1_3)"/>
<path d="M76.9194 26.1782C77.5535 25.2941 77.9765 24.2882 78.6572 23.4312C82.5326 29.7805 86.022 36.3635 89.8647 42.7409C90.8414 44.3618 91.6057 46.2866 92.7545 47.7801C94.1806 50.6099 96.0406 53.2273 97.4283 56.0739C99.8989 57.9927 103.049 59.5076 105.741 61.107L103.086 65.3799C101.74 67.3845 100.606 69.5073 99.3359 71.5577C96.2649 76.5153 92.7957 82.0898 90.0651 87.2241C88.8303 88.9898 87.9049 90.9643 86.671 92.7227C85.6174 91.075 84.5272 89.2187 83.8105 87.4035C80.0023 87.3312 76.1702 87.4081 72.3578 87.4035C71.0888 89.053 70.227 91.281 69.2232 92.4911L69.0059 92.3437C68.7008 91.3386 66.8725 88.0873 66.142 87.2241C65.9681 86.4598 64.2974 84.0615 63.799 83.1928L56.95 71.208C56.1122 69.7681 55.1531 67.7122 54.0648 66.5149C53.744 65.0797 51.732 62.0974 50.776 60.8937C53.1184 59.2063 59.6025 55.9933 61.1505 54.3446C63.0044 51.5557 64.3077 48.411 66.142 45.5888L66.2615 45.3073C68.4011 40.146 72.9887 33.3746 75.7284 28.189C76.1603 27.8623 76.6408 26.693 76.9194 26.1782ZM57.7473 62.7244C59.4003 65.1382 60.832 67.6884 62.3115 70.2112L70.1508 83.7311C70.6181 84.5357 71.6529 86.9852 72.3578 87.4035C76.1702 87.4081 80.0023 87.3312 83.8105 87.4035C84.4412 86.9687 96.4315 65.9877 98.6805 62.7244C91.8391 59.3353 84.4494 54.2205 77.7543 50.3185C74.0614 52.6275 70.3481 54.9212 66.5997 57.1387L61.3491 60.272C60.1003 61.0328 58.8297 61.7313 57.7473 62.7244ZM76.9194 26.1782C76.6408 26.693 76.1603 27.8623 75.7284 28.189C72.9887 33.3746 68.4011 40.146 66.2615 45.3073L66.142 45.5888C64.3077 48.411 63.0044 51.5557 61.1505 54.3446C61.6421 54.4347 76.3419 45.1744 77.7543 44.2723C79.6149 45.4567 81.5495 46.5292 83.4416 47.6611L89.9434 51.6383C92.3673 53.0988 94.8973 54.8697 97.4283 56.0739C96.0406 53.2273 94.1806 50.6099 92.7545 47.7801C91.6057 46.2866 90.8414 44.3618 89.8647 42.7409C86.022 36.3635 82.5326 29.7805 78.6572 23.4312C77.9765 24.2882 77.5535 25.2941 76.9194 26.1782Z" fill="url(#paint5_linear_1_3)"/>
<defs>
<linearGradient id="paint0_linear_1_3" x1="76.9922" y1="8.35736" x2="75.0267" y2="10.426" gradientUnits="userSpaceOnUse">
<stop stop-color="#435CCE"/>
<stop offset="1" stop-color="#4642D2"/>
</linearGradient>
<linearGradient id="paint1_linear_1_3" x1="23.9034" y1="89.0017" x2="34.4856" y2="90.5707" gradientUnits="userSpaceOnUse">
<stop stop-color="#FF5867"/>
<stop offset="1" stop-color="#FF6EBE"/>
</linearGradient>
<linearGradient id="paint2_linear_1_3" x1="131.216" y1="29.3687" x2="131.071" y2="35.5962" gradientUnits="userSpaceOnUse">
<stop stop-color="#FF6B53"/>
<stop offset="1" stop-color="#FB5269"/>
</linearGradient>
<linearGradient id="paint3_linear_1_3" x1="33.7945" y1="91.6819" x2="91.0061" y2="37.1132" gradientUnits="userSpaceOnUse">
<stop stop-color="#4A0E6F"/>
<stop offset="1" stop-color="#B458B0"/>
</linearGradient>
<linearGradient id="paint4_linear_1_3" x1="75.6468" y1="24.0381" x2="85.2494" y2="19.8359" gradientUnits="userSpaceOnUse">
<stop stop-color="#D486C5"/>
<stop offset="1" stop-color="#F2C9E9"/>
</linearGradient>
<linearGradient id="paint5_linear_1_3" x1="103.195" y1="73.6566" x2="50.4294" y2="64.2622" gradientUnits="userSpaceOnUse">
<stop stop-color="#7019B1"/>
<stop offset="1" stop-color="#BC37FB"/>
</linearGradient>
</defs>
</svg>
